<svg xmlns="http://www.w3.org/2000/svg" viewBox="0 0 800 800" preserveAspectRatio="xMidYMid meet">
    <ellipse cx="400" cy="668" rx="235" ry="18" fill="#000000" opacity="0.25"/>
    <g transform="translate(505 470) scale(0.82) rotate(4) translate(-400 -400)">
    <ellipse cx="400" cy="662" rx="185" ry="20" fill="#000000" opacity="0.25"/>
    
    <circle cx="575" cy="448" r="52" fill="none" stroke="#FAFAFA" stroke-width="32"/>
    <clipPath id="mugClip"><path d="M265 320 H535 V570 Q535 625 480 625 H320 Q265 625 265 570 Z"/></clipPath>
    <path d="M265 320 H535 V570 Q535 625 480 625 H320 Q265 625 265 570 Z" fill="#FAFAFA"/>
    <g clip-path="url(#mugClip)" fill="#0066FF">
      <circle cx="352" cy="420" r="13"/><circle cx="446" cy="402" r="10"/>
      <circle cx="398" cy="492" r="11"/><circle cx="474" cy="500" r="8"/>
      <circle cx="330" cy="546" r="9"/><circle cx="420" cy="566" r="7"/></g>
    <rect x="292" y="360" width="22" height="168" rx="11" fill="#FFFFFF" opacity=".28"/>
    <ellipse cx="400" cy="320" rx="135" ry="26" fill="#ECECEE"/>
    <ellipse cx="400" cy="320" rx="110" ry="17" fill="#ECECEE"/>
    </g>
    <g transform="translate(320 480) scale(0.86) rotate(-4) translate(-400 -400)">
    <ellipse cx="400" cy="662" rx="185" ry="20" fill="#000000" opacity="0.25"/>
    
    <circle cx="575" cy="448" r="52" fill="none" stroke="#0066FF" stroke-width="32"/>
    <clipPath id="mugClip"><path d="M265 320 H535 V570 Q535 625 480 625 H320 Q265 625 265 570 Z"/></clipPath>
    <path d="M265 320 H535 V570 Q535 625 480 625 H320 Q265 625 265 570 Z" fill="#0066FF"/>
    <g clip-path="url(#mugClip)"><rect x="265" y="430" width="270" height="46" fill="#FAFAFA" opacity=".9"/></g>
    <rect x="292" y="360" width="22" height="168" rx="11" fill="#FFFFFF" opacity=".28"/>
    <ellipse cx="400" cy="320" rx="135" ry="26" fill="#0066FF"/>
    <ellipse cx="400" cy="320" rx="110" ry="17" fill="#0B0C10"/>
    </g>
    <path d="M 590 288.1 Q 592.45 297.55 601.9 300 Q 592.45 302.45 590 311.9 Q 587.55 302.45 578.1 300 Q 587.55 297.55 590 288.1 Z" fill="#FF8A3D"/>
    <path d="M 230 320.65 Q 231.925 328.075 239.35 330 Q 231.925 331.925 230 339.35 Q 228.075 331.925 220.65 330 Q 228.075 328.075 230 320.65 Z" fill="#FF8A3D"/></svg>