<svg xmlns="http://www.w3.org/2000/svg" viewBox="0 0 800 800" preserveAspectRatio="xMidYMid meet">
    <ellipse cx="400" cy="630" rx="195" ry="18" fill="#000000" opacity="0.25"/>
    <rect x="205" y="205" width="390" height="390" rx="30" fill="#F4F4F4" stroke="#E7E8EC" stroke-width="3"/>
    <rect x="205" y="205" width="390" height="390" rx="30" fill="none" stroke="#FFD9B8" stroke-width="2" stroke-dasharray="4 10" opacity=".7"/>
    <circle cx="300" cy="340" r="47" fill="#FFFFFF" stroke="#E7E8EC" stroke-width="2"/>
  <path d="M 300 314 L 307 332 L 326 332 L 311 344 L 316 362 L 300 351 L 284 362 L 289 344 L 274 332 L 293 332 Z" fill="#FF8A3D"/><circle cx="400" cy="342" r="47" fill="#FFFFFF" stroke="#E7E8EC" stroke-width="2"/>
  <path d="M 408 316 A 26 26 0 1 0 408 368 A 20 20 0 1 1 408 316 Z" fill="#FF8A3D"/><circle cx="500" cy="344" r="47" fill="#FFFFFF" stroke="#E7E8EC" stroke-width="2"/>
  <path d="M 474 356 Q 486 326 500 348 Q 514 366 526 334" stroke="#0066FF" stroke-width="7" fill="none" stroke-linecap="round"/><circle cx="300" cy="462" r="47" fill="#FFFFFF" stroke="#E7E8EC" stroke-width="2"/>
  <path d="M 300 482 C 270 460 278 436 300 452 C 322 436 330 460 300 482 Z" fill="#FF8A3D"/><circle cx="400" cy="452" r="47" fill="#FFFFFF" stroke="#E7E8EC" stroke-width="2"/>
  <path d="M 400 426 L 407 444 L 426 444 L 411 456 L 416 474 L 400 463 L 384 474 L 389 456 L 374 444 L 393 444 Z" fill="#0066FF"/><circle cx="500" cy="464" r="47" fill="#FFFFFF" stroke="#E7E8EC" stroke-width="2"/>
  <path d="M 506 438 L 486 466 L 499 466 L 492 490 L 514 460 L 501 460 Z" fill="#FF8A3D"/></svg>